<svg width="48" height="48" xmlns="http://www.w3.org/2000/svg" xmlns:xlink="http://www.w3.org/1999/xlink" xml:space="preserve" overflow="hidden"><g transform="translate(-295 -312)"><path d="M317.45 348.2C317.2 348.2 316.9 348.15 316.7 347.95 316.3 347.6 316.25 346.95 316.6 346.55L318.55 344.3C318.9 343.9 319.55 343.85 319.95 344.2 320.35 344.55 320.4 345.2 320.05 345.6L318.1 347.85C317.95 348.05 317.7 348.15 317.45 348.2Z" fill="#E60A11"/><path d="M314.4 347.05C314.05 347.1 313.75 347 313.45 346.75 312.95 346.3 312.9 345.5 313.35 345L315.65 342.35C316.1 341.85 316.9 341.8 317.4 342.25 317.9 342.7 317.95 343.5 317.5 344L315.2 346.65C315 346.9 314.7 347.05 314.4 347.05Z" fill="#E60A11"/><path d="M311.25 345.2C310.85 345.25 310.45 345.1 310.15 344.85 309.55 344.3 309.45 343.35 310 342.75L312.3 340.1C312.85 339.5 313.8 339.4 314.4 339.95 315 340.5 315.1 341.45 314.55 342.05L312.25 344.7C312 345 311.6 345.2 311.25 345.2Z" fill="#E60A11"/><path d="M307.6 343.35C307.2 343.4 306.8 343.25 306.5 343 305.9 342.45 305.8 341.5 306.35 340.9L309 337.9C309.55 337.3 310.5 337.2 311.1 337.75 311.7 338.3 311.8 339.25 311.25 339.85L308.6 342.85C308.3 343.15 307.95 343.3 307.6 343.35Z" fill="#E60A11"/><path d="M297.3 332.35 301.15 334.7C301.6 335 302.25 334.85 302.5 334.35L307.15 326.65C307.45 326.2 307.3 325.55 306.8 325.3L303 322.95 297.3 332.35Z" fill="#E60A11"/><path d="M329.7 338.9 321.65 332 321.1 331.5 317.65 335.45C317.15 336.05 316.45 336.4 315.65 336.45 315.55 336.45 315.45 336.45 315.4 336.45 314.65 336.45 313.95 336.2 313.45 335.7 312.2 334.6 312.1 332.7 313.15 331.45L316.1 328.05C313.8 327.75 310.85 328.95 307.8 327.45L303.45 334.65 306.85 338.6 308.15 337.1C308.6 336.55 309.3 336.25 310.05 336.25L310.05 336.25C310.65 336.25 311.25 336.45 311.7 336.85 312.25 337.3 312.5 337.95 312.55 338.65 312.8 338.55 313.1 338.5 313.4 338.5 314 338.5 314.6 338.7 315.05 339.1 315.6 339.6 315.9 340.25 315.9 340.95 316.1 340.9 316.35 340.85 316.55 340.85L316.55 340.85C317.1 340.85 317.6 341.05 318.05 341.4 318.5 341.8 318.75 342.35 318.8 342.95 318.95 342.9 319.15 342.85 319.35 342.85L319.35 342.85C319.85 342.85 320.3 343 320.65 343.35 321.05 343.7 321.3 344.2 321.35 344.7 321.4 345.25 321.2 345.75 320.85 346.15L319.15 348.1 319.85 348.65C320.2 348.85 320.6 349 321.05 348.95 322.15 348.85 322.95 347.9 322.85 346.8 322.85 346.8 322.85 346.75 322.85 346.75 323 346.8 323.2 346.8 323.35 346.8 324.45 346.7 325.25 345.75 325.15 344.65 325.15 344.65 325.15 344.6 325.15 344.6 325.3 344.65 325.5 344.65 325.65 344.65 326.75 344.55 327.55 343.6 327.45 342.5 327.45 342.4 327.4 342.3 327.4 342.2 327.7 342.35 328.05 342.45 328.45 342.4 329.55 342.3 330.35 341.35 330.25 340.25 330.3 339.7 330.05 339.25 329.7 338.9Z" fill="#E60A11"/><path d="M340.7 332.35 336.85 334.7C336.4 335 335.75 334.85 335.5 334.35L330.85 326.65C330.55 326.2 330.7 325.55 331.2 325.3L335.05 322.95 340.7 332.35Z" fill="#E60A11"/><path d="M330.25 327.65C326.1 329.15 323.1 327.7 319.75 327.05 319.7 327.05 319.5 327 319.5 327 318.9 326.95 318.25 327.15 317.8 327.65L313.85 332.15C313.1 333 313.2 334.25 314.05 334.95 314.5 335.3 315 335.5 315.55 335.45 316.05 335.4 316.55 335.2 316.9 334.75 316.9 334.75 321 330.05 321 330.05L330.35 338.1 330.35 338.1 330.35 338.1C330.6 338.35 330.7 338.45 330.9 338.75L334.5 334.6 330.25 327.65Z" fill="#E60A11"/></g></svg>