<svg width="48" height="48" xmlns="http://www.w3.org/2000/svg" xmlns:xlink="http://www.w3.org/1999/xlink" xml:space="preserve" overflow="hidden"><g transform="translate(-557 -442)"><path d="M574.25 463.75C574.25 467.75 577.5 471 581.5 471 585.5 471 588.75 467.75 588.75 463.75 588.75 459.75 585.5 456.5 581.5 456.5 577.5 456.5 574.25 459.75 574.25 463.75ZM585.55 465.9 585.55 467.45 577.4 467.45 577.4 465.9C577.4 465.6 577.55 465.3 577.8 465.1 578.4 464.65 579.05 464.35 579.8 464.15 580.35 464 580.9 463.9 581.5 463.9 582.05 463.9 582.65 464 583.2 464.15 583.9 464.35 584.6 464.65 585.2 465.1 585.4 465.3 585.55 465.6 585.55 465.9ZM581.5 459.3C582.6 459.3 583.55 460.2 583.55 461.35L583.55 461.35C583.55 462.45 582.65 463.4 581.5 463.4 580.4 463.4 579.45 462.5 579.45 461.35 579.45 460.2 580.35 459.3 581.5 459.3Z" fill="#E60A11"/><path d="M602.5 458 604 458 604 459.5 602.5 459.5Z" fill="#E60A11"/><path d="M593.95 458 595.4 458 595.4 459.5 593.95 459.5Z" fill="#E60A11"/><path d="M596.85 458 598.3 458 598.3 459.5 596.85 459.5Z" fill="#E60A11"/><path d="M599.7 458 601.15 458 601.15 459.5 599.7 459.5Z" fill="#E60A11"/><path d="M591 458 592.5 458 592.5 459.5 591 459.5Z" fill="#E60A11"/><path d="M591 452 592.5 452 592.5 453.5 591 453.5Z" fill="#E60A11"/><path d="M591 455 592.5 455 592.5 456.5 591 456.5Z" fill="#E60A11"/><path d="M591 449 592.5 449 592.5 450.5 591 450.5Z" fill="#E60A11"/><path d="M591 446 592.5 446 592.5 447.5 591 447.5Z" fill="#E60A11"/><path d="M596.85 446 598.3 446 598.3 447.5 596.85 447.5Z" fill="#E60A11"/><path d="M599.7 446 601.15 446 601.15 447.5 599.7 447.5Z" fill="#E60A11"/><path d="M593.95 446 595.4 446 595.4 447.5 593.95 447.5Z" fill="#E60A11"/><path d="M602.5 446 604 446 604 447.5 602.5 447.5Z" fill="#E60A11"/><path d="M602.5 449 604 449 604 450.5 602.5 450.5Z" fill="#E60A11"/><path d="M602.5 452 604 452 604 453.5 602.5 453.5Z" fill="#E60A11"/><path d="M602.5 455 604 455 604 456.5 602.5 456.5Z" fill="#E60A11"/><path d="M592 472.25C592.05 472.35 592.15 472.4 592.25 472.4 592.3 472.4 592.35 472.35 592.4 472.25L593.15 470.2 595.5 472.55 596.55 471.5 594.2 469.15 596.25 468.4C596.35 468.35 596.4 468.25 596.4 468.15 596.4 468.1 596.35 468.05 596.25 468L590.3 466C590.3 466 590.25 466 590.25 466L590.25 466C590.15 466 590.05 466.1 590.05 466.2 590.05 466.2 590.05 466.25 590.05 466.25L592 472.25Z" fill="#E60A11"/><path d="M571.5 454 558 454 558 464.5 571.5 464.5 571.5 454ZM570 463 559.5 463 559.5 455.5 570 455.5 570 463Z" fill="#E60A11"/><path d="M561.5 456.75 567.5 456.75 567.5 458.25 561.5 458.25Z" fill="#E60A11"/><path d="M561.5 459.75 565.5 459.75 565.5 461.25 561.5 461.25Z" fill="#E60A11"/><path d="M599.5 449.5 593.5 449.5 593.5 452.5 598.5 452.5 598.5 457 601.5 457 601.5 451.5C601.5 450.4 600.6 449.5 599.5 449.5Z" fill="#E60A11"/><path d="M598.5 474.5 564.5 474.5 564.5 466.5 561.5 466.5 561.5 475.5C561.5 476.6 562.4 477.5 563.5 477.5L577.5 477.5 577.5 480.5 572.5 480.5 572.5 483.5 590.5 483.5 590.5 480.5 585.5 480.5 585.5 477.5 599.5 477.5C600.6 477.5 601.5 476.6 601.5 475.5L601.5 460.5 598.5 460.5 598.5 474.5Z" fill="#E60A11"/><path d="M590 449.5 563.5 449.5C562.4 449.5 561.5 450.4 561.5 451.5L561.5 452.5 590 452.5 590 449.5Z" fill="#E60A11"/></g></svg>