<svg width="48" height="48" xmlns="http://www.w3.org/2000/svg" xmlns:xlink="http://www.w3.org/1999/xlink" xml:space="preserve" overflow="hidden"><g transform="translate(-837 -252)"><path d="M854.15 279.5 856.455 275.5C855.855 275.203 855.287 274.847 854.76 274.435L852.26 278.77C852.918 278.932 853.554 279.178 854.15 279.5Z" fill="#E60A11"/><path d="M863.605 288C863.537 287.587 863.502 287.169 863.5 286.75 863.501 286.5 863.514 286.249 863.54 286L858.46 286C858.486 286.249 858.499 286.5 858.5 286.75 858.498 287.169 858.463 287.587 858.395 288Z" fill="#E60A11"/><path d="M867.5 279.705C868.073 279.353 868.688 279.072 869.33 278.87L866.765 274.425C866.23 274.841 865.654 275.202 865.045 275.5Z" fill="#E60A11"/><path d="M850.25 280.5C846.798 280.5 844 283.298 844 286.75 844 290.202 846.798 293 850.25 293 853.702 293 856.5 290.202 856.5 286.75 856.5 283.298 853.702 280.5 850.25 280.5ZM850.25 282.935C851.219 282.932 852.007 283.716 852.01 284.685 852.013 285.654 851.229 286.442 850.26 286.445 849.291 286.448 848.503 285.664 848.5 284.695 848.5 284.692 848.5 284.688 848.5 284.685 848.503 283.72 849.285 282.938 850.25 282.935ZM853.75 289.965 846.75 289.965 846.75 288.63C846.757 288.356 846.885 288.1 847.1 287.93 847.619 287.557 848.197 287.275 848.81 287.095 849.28 286.958 849.766 286.884 850.255 286.875 850.745 286.878 851.232 286.952 851.7 287.095 852.32 287.256 852.902 287.54 853.41 287.93 853.625 288.1 853.753 288.356 853.76 288.63Z" fill="#E60A11"/><path d="M868.5 266.75C868.5 262.47 865.03 259 860.75 259 856.47 259 853 262.47 853 266.75 853 271.03 856.47 274.5 860.75 274.5 865.03 274.5 868.5 271.03 868.5 266.75ZM860.735 262C861.936 262 862.91 262.974 862.91 264.175 862.91 265.376 861.936 266.35 860.735 266.35 859.534 266.35 858.56 265.376 858.56 264.175 858.563 262.975 859.535 262.003 860.735 262ZM865.075 270.72 856.39 270.72 856.39 269.05C856.396 268.709 856.556 268.39 856.825 268.18 857.466 267.718 858.181 267.369 858.94 267.15 859.523 266.98 860.127 266.889 860.735 266.88 861.342 266.881 861.945 266.972 862.525 267.15 863.293 267.35 864.013 267.7 864.645 268.18 864.911 268.391 865.068 268.71 865.075 269.05Z" fill="#E60A11"/><path d="M871.75 280.5C868.298 280.5 865.5 283.298 865.5 286.75 865.5 290.202 868.298 293 871.75 293 875.202 293 878 290.202 878 286.75 878 283.298 875.202 280.5 871.75 280.5ZM871.75 282.935C872.719 282.932 873.507 283.716 873.51 284.685 873.513 285.654 872.729 286.442 871.76 286.445 870.791 286.448 870.003 285.664 870 284.695 870 284.692 870 284.688 870 284.685 870.003 283.72 870.785 282.938 871.75 282.935ZM875.25 289.965 868.25 289.965 868.25 288.63C868.257 288.356 868.385 288.1 868.6 287.93 869.119 287.557 869.697 287.275 870.31 287.095 870.78 286.958 871.266 286.884 871.755 286.875 872.245 286.878 872.732 286.952 873.2 287.095 873.82 287.256 874.402 287.54 874.91 287.93 875.125 288.1 875.253 288.356 875.26 288.63Z" fill="#E60A11"/></g></svg>