<svg width="48" height="48" xmlns="http://www.w3.org/2000/svg" xmlns:xlink="http://www.w3.org/1999/xlink" xml:space="preserve" overflow="hidden"><g transform="translate(-581 -115)"><path d="M612 125 615 125 615 122 609 122 609 134 612 134Z" fill="#E60A11"/><path d="M601 148 589 148 589 136C589 132.7 591.7 130 595 130 598.3 130 601 132.7 601 136L601 148ZM615 127 614 127 614 136 607 136 607 127 595 127C590.05 127 586 131.05 586 136L586 151 603 151 603 156 607 156 607 151 624 151 624 136C624 131.05 619.95 127 615 127Z" fill="#E60A11"/></g></svg>