<svg width="48" height="48" xmlns="http://www.w3.org/2000/svg" xmlns:xlink="http://www.w3.org/1999/xlink" xml:space="preserve" overflow="hidden"><g transform="translate(-592 -312)"><path d="M603.5 336.25C603.5 338.597 601.597 340.5 599.25 340.5 596.903 340.5 595 338.597 595 336.25 595 333.903 596.903 332 599.25 332 601.597 332 603.5 333.903 603.5 336.25Z" fill="#E60A11"/><path d="M620 336.25C620 338.597 618.097 340.5 615.75 340.5 613.403 340.5 611.5 338.597 611.5 336.25 611.5 333.903 613.403 332 615.75 332 618.097 332 620 333.903 620 336.25Z" fill="#E60A11"/><path d="M636.5 336.25C636.5 338.597 634.597 340.5 632.25 340.5 629.903 340.5 628 338.597 628 336.25 628 333.903 629.903 332 632.25 332 634.597 332 636.5 333.903 636.5 336.25Z" fill="#E60A11"/></g></svg>