<svg width="48" height="48" xmlns="http://www.w3.org/2000/svg" xmlns:xlink="http://www.w3.org/1999/xlink" xml:space="preserve" overflow="hidden"><g transform="translate(-227 -182)"><path d="M238.5 189 263.5 189 263.5 223 238.5 223 238.5 189ZM235.5 226 266.5 226 266.5 186 235.5 186 235.5 226Z" fill="#E60A11"/><path d="M242 192 246 192 246 196 242 196Z" fill="#E60A11"/><path d="M250 193 260 193 260 195 250 195Z" fill="#E60A11"/><path d="M242 200 246 200 246 204 242 204Z" fill="#E60A11"/><path d="M250 201 260 201 260 203 250 203Z" fill="#E60A11"/><path d="M242 208 246 208 246 212 242 212Z" fill="#E60A11"/><path d="M250 209 260 209 260 211 250 211Z" fill="#E60A11"/><path d="M242 216 246 216 246 220 242 220Z" fill="#E60A11"/><path d="M250 217 260 217 260 219 250 219Z" fill="#E60A11"/></g></svg>