<svg width="48" height="48" xmlns="http://www.w3.org/2000/svg" xmlns:xlink="http://www.w3.org/1999/xlink" xml:space="preserve" overflow="hidden"><g transform="translate(-806 -360)"><path d="M834.055 371.735C837.931 372.953 841.014 375.912 842.39 379.735L840.85 378.82C840.395 378.507 839.773 378.621 839.459 379.076 839.146 379.531 839.26 380.153 839.715 380.467 839.758 380.496 839.803 380.522 839.85 380.545L843.35 382.62C843.527 382.762 843.748 382.84 843.975 382.84L844 382.84 844.08 382.84 844.12 382.84 844.12 382.84 844.2 382.84C844.456 382.773 844.676 382.608 844.81 382.38L847 378.695C847.239 378.197 847.029 377.6 846.531 377.361 846.087 377.148 845.554 377.29 845.275 377.695L844.35 379.27 844.35 379.27C843.194 375.893 840.869 373.039 837.795 371.225 836.803 370.641 835.748 370.171 834.65 369.825 834.123 369.661 833.562 369.955 833.398 370.483 833.233 371.01 833.528 371.571 834.055 371.735Z" fill="#E60A11"/><path d="M815.57 387.58C815.677 388.032 816.081 388.351 816.545 388.35 816.623 388.35 816.7 388.339 816.775 388.32 817.304 388.185 817.626 387.651 817.5 387.12 816.738 383.85 817.276 380.411 819 377.53 819.399 376.854 819.858 376.215 820.37 375.62L820.4 375.65 820.4 377.48C820.4 378.032 820.848 378.48 821.4 378.48 821.952 378.48 822.4 378.032 822.4 377.48L822.44 373.24C822.44 372.688 821.992 372.24 821.44 372.24L817.195 372.2C816.643 372.2 816.195 372.648 816.195 373.2 816.195 373.752 816.643 374.2 817.195 374.2L818.97 374.2C818.325 374.91 817.749 375.681 817.25 376.5 815.271 379.835 814.669 383.809 815.57 387.58Z" fill="#E60A11"/><path d="M839.11 393.575C836.07 396.443 831.84 397.679 827.735 396.9L827.735 396.9 829.325 396C829.804 395.724 829.969 395.112 829.693 394.633 829.416 394.153 828.804 393.989 828.325 394.265L824.65 396.35C824.17 396.623 824.001 397.233 824.274 397.713 824.274 397.714 824.275 397.714 824.275 397.715L826.38 401.4C826.656 401.88 827.27 402.046 827.75 401.77 828.23 401.494 828.396 400.88 828.12 400.4L827.225 398.84C832.007 399.802 836.959 398.38 840.5 395.025 840.916 394.662 840.959 394.03 840.596 393.614 840.233 393.198 839.601 393.155 839.185 393.518 839.164 393.536 839.144 393.555 839.125 393.575Z" fill="#E60A11"/><path d="M823 392.82C823 395.029 821.209 396.82 819 396.82 816.791 396.82 815 395.029 815 392.82 815 390.611 816.791 388.82 819 388.82 821.209 388.82 823 390.611 823 392.82Z" fill="#E60A11"/><path d="M847.25 389.4C847.25 391.609 845.459 393.4 843.25 393.4 841.041 393.4 839.25 391.609 839.25 389.4 839.25 387.191 841.041 385.4 843.25 385.4 845.459 385.4 847.25 387.191 847.25 389.4Z" fill="#E60A11"/><path d="M832.375 370.305C832.375 372.514 830.584 374.305 828.375 374.305 826.166 374.305 824.375 372.514 824.375 370.305 824.375 368.096 826.166 366.305 828.375 366.305 830.584 366.305 832.375 368.096 832.375 370.305Z" fill="#E60A11"/></g></svg>