<svg width="48" height="48" xmlns="http://www.w3.org/2000/svg" xmlns:xlink="http://www.w3.org/1999/xlink" xml:space="preserve" overflow="hidden"><g transform="translate(-826 -478)"><path d="M855 515.5 869 515.5 869 522.5 855 522.5Z" fill="#E60A11"/><path d="M861 504.5 861 511.7 860 510.7C859.658 510.358 859.102 510.358 858.76 510.7 858.418 511.042 858.418 511.598 858.76 511.94L861.385 514.565C861.728 514.906 862.282 514.906 862.625 514.565L865.25 511.94C865.594 511.595 865.593 511.036 865.247 510.693 864.902 510.349 864.344 510.35 864 510.695L863 511.695 863 502.5 854.5 502.5 850 498.19 845.5 502.5 837 502.5 837 511.7 836 510.7C835.658 510.358 835.102 510.358 834.76 510.7 834.418 511.042 834.418 511.598 834.76 511.94L837.385 514.565C837.728 514.906 838.282 514.906 838.625 514.565L841.25 511.94C841.594 511.595 841.593 511.036 841.247 510.693 840.902 510.349 840.344 510.35 840 510.695L839 511.695 839 504.5 845.5 504.5 850 509 854.5 504.5 861 504.5Z" fill="#E60A11"/><path d="M831 515.5 845 515.5 845 522.5 831 522.5Z" fill="#E60A11"/><path d="M849.055 494.255 848 493.195C847.658 492.853 847.102 492.853 846.76 493.195 846.418 493.537 846.418 494.093 846.76 494.435L849.385 497.06C849.728 497.401 850.282 497.401 850.625 497.06L853.25 494.435C853.592 494.09 853.59 493.532 853.245 493.19 852.9 492.848 852.342 492.85 852 493.195L851.05 494.15 851.05 488.5 857 488.5 857 481.5 843 481.5 843 488.5 849.055 488.5Z" fill="#E60A11"/></g></svg>