<svg width="48" height="48" xmlns="http://www.w3.org/2000/svg" xmlns:xlink="http://www.w3.org/1999/xlink" xml:space="preserve" overflow="hidden"><g transform="translate(-592 -252)"><path d="M638 268.75C638 267.65 637.1 266.75 636 266.75 635.6 266.75 635.25 266.85 634.95 267.05L626.4 271.95C626.5 272.5 626.5 273.05 626.4 273.65 626 275.5 624.25 276.8 622.35 276.8L613.5 276.8 613.5 274.8 622.5 274.8C623.6 274.8 624.5 273.9 624.5 272.8 624.5 271.7 623.6 270.8 622.5 270.8 622.5 270.8 610.6 270.8 610.5 270.8 609.65 270.8 608.85 271.05 608.15 271.45L594 278.25 601 285.25C604.25 282 608.45 280.75 613 280.75L622.35 280.75C622.8 280.75 623.2 280.6 623.55 280.35L637.3 270.3C637.7 269.9 638 269.35 638 268.75Z" fill="#E60A11"/></g></svg>